<svg width="50" height="49" viewBox="0 0 50 49" fill="none" xmlns="http://www.w3.org/2000/svg">
<path d="M37.6554 0.311707H11.9009C5.62564 0.311707 0.538574 5.39877 0.538574 11.674V37.4285C0.538574 43.7037 5.62564 48.7908 11.9009 48.7908H37.6554C43.9306 48.7908 49.0177 43.7037 49.0177 37.4285V11.674C49.0177 5.39877 43.9306 0.311707 37.6554 0.311707Z" fill="#0277BD"/>
<path d="M10.7179 19.7509L11.2598 25.7998H24.7963V19.7509H10.7179ZM24.7961 7.50782H9.6284L10.1783 13.5567H24.7961V7.50782ZM24.7961 41.7539V35.4606L24.7696 35.4676L18.0329 33.6486L17.6023 28.8242H11.5301L12.3775 38.322L24.7683 41.7617L24.7961 41.7539Z" fill="#EBEBEB"/>
<path d="M32.2238 25.7998L31.5216 33.6447L24.7753 35.4657V41.7587L37.1759 38.322L38.6882 21.3753L38.8357 19.7509L39.9278 7.50782H24.7753V13.5567H33.2987L32.7484 19.7509H24.7753V25.7998H32.2238Z" fill="white"/>
</svg>
