<svg width="43" height="50" viewBox="0 0 43 50" fill="none" xmlns="http://www.w3.org/2000/svg">
<path d="M10.8606 0.741943H21.3439V16.9562H10.8606C8.0802 16.9562 5.41372 16.102 3.44771 14.5817C1.4817 13.0613 0.377213 10.9992 0.377213 8.84906C0.377213 6.69892 1.4817 4.63684 3.44771 3.11646C5.41372 1.59608 8.0802 0.741943 10.8606 0.741943Z" fill="#F4511E"/>
<path d="M31.8272 16.9562H21.3439V0.741943H31.8272C34.6076 0.741943 37.2741 1.59608 39.2401 3.11646C41.2061 4.63684 42.3106 6.69892 42.3106 8.84906C42.3106 10.9992 41.2061 13.0613 39.2401 14.5817C37.2741 16.102 34.6076 16.9562 31.8272 16.9562Z" fill="#FF8A65"/>
<path d="M21.3439 25.0633C21.3439 29.5407 26.0375 33.1704 31.8272 33.1704C37.617 33.1704 42.3106 29.5407 42.3106 25.0633C42.3106 20.5859 37.617 16.9562 31.8272 16.9562C26.0375 16.9562 21.3439 20.5859 21.3439 25.0633Z" fill="#29B6F6"/>
<path d="M10.8606 16.9562H21.3439V33.1704H10.8606C8.0802 33.1704 5.41372 32.3163 3.44771 30.7959C1.4817 29.2755 0.377213 27.2134 0.377213 25.0633C0.377213 22.9132 1.4817 20.8511 3.44771 19.3307C5.41372 17.8103 8.0802 16.9562 10.8606 16.9562Z" fill="#7C4DFF"/>
<path d="M10.8606 33.1704H21.3439V41.2775C21.3439 43.4277 20.2394 45.4898 18.2734 47.0101C16.3074 48.5305 13.6409 49.3847 10.8606 49.3847C8.0802 49.3847 5.41372 48.5305 3.44771 47.0101C1.4817 45.4898 0.377213 43.4277 0.377213 41.2775C0.377213 39.1274 1.4817 37.0653 3.44771 35.5449C5.41372 34.0246 8.0802 33.1704 10.8606 33.1704Z" fill="#00E676"/>
</svg>
