<svg width="13" height="11" viewBox="0 0 13 11" fill="none" xmlns="http://www.w3.org/2000/svg">
<path d="M12.2115 1.44782H0.788424C0.433039 1.44782 0.153809 1.12789 0.153809 0.720719C0.153809 0.313545 0.433039 -0.00637817 0.788424 -0.00637817H12.2115C12.5669 -0.00637817 12.8461 0.313545 12.8461 0.720719C12.8461 1.12789 12.5669 1.44782 12.2115 1.44782ZM12.2115 5.8104H0.788424C0.433039 5.8104 0.153809 5.49048 0.153809 5.0833C0.153809 4.67613 0.433039 4.3562 0.788424 4.3562H12.2115C12.5669 4.3562 12.8461 4.67613 12.8461 5.0833C12.8461 5.49048 12.5669 5.8104 12.2115 5.8104ZM12.2115 10.173H0.788424C0.433039 10.173 0.153809 9.85306 0.153809 9.44588C0.153809 9.03871 0.433039 8.71879 0.788424 8.71879H12.2115C12.5669 8.71879 12.8461 9.03871 12.8461 9.44588C12.8461 9.85306 12.5669 10.173 12.2115 10.173Z" fill="#D9D9D9"/>
</svg>
