<svg width="44" height="49" viewBox="0 0 44 49" fill="none" xmlns="http://www.w3.org/2000/svg">
<path d="M43.9895 9.78939L40.0165 44.9603L22.1575 48.8726L4.34775 44.9657L0.37883 9.78939H43.9895Z" fill="#E44D26"/>
<path d="M22.1842 45.8821L36.6152 42.7207L40.0102 12.6655H22.1842V45.8821Z" fill="#F16529"/>
<path d="M14.4607 21.2941H22.1842V16.9799H8.49411L9.96666 30.0262H22.1842V25.7119H14.9597L14.4607 21.2941ZM15.6912 32.1833H10.2106L10.9754 38.9574L22.1591 41.4105L22.1842 41.4051V36.9165L22.1603 36.9215L16.08 35.6241L15.6912 32.1833Z" fill="#EBEBEB"/>
<path d="M4.4363 0.229919H7.21079V2.39602H9.74887V0.229919H12.5235V6.78941H9.74904V4.59292H7.21096V6.78941H4.43647L4.4363 0.229919ZM13.7297 2.4052V0.229919H21.3906V2.4052H18.9469V6.78941H16.1724V2.4052H13.7297ZM22.6064 0.229919H25.4994L27.279 2.53475L29.0568 0.229919H31.951V6.78941H29.1878V3.53817L27.279 5.87042H27.2311L25.3211 3.53817V6.78941H22.6064V0.229919ZM33.3318 0.229919H36.1071V4.62128H40.0088V6.78941H33.3316L33.3318 0.229919Z" fill="black"/>
<path d="M22.1654 30.0262H28.8883L28.2544 35.6214L22.1652 36.9201V41.4085L33.3577 38.9574L34.7229 26.8704L34.8561 25.7119H22.1654V30.0262ZM22.1654 21.2941H35.3529L35.8416 16.9799H22.1654V21.2941Z" fill="white"/>
</svg>
