<svg width="49" height="50" viewBox="0 0 49 50" fill="none" xmlns="http://www.w3.org/2000/svg">
<path d="M9.10283 0.823792H40.4004C45.131 0.823792 48.9912 4.74404 48.9912 9.63464V40.492C48.9912 45.3438 45.1688 49.3029 40.4004 49.3029H9.10283C4.3344 49.2641 0.512085 45.3438 0.512085 40.4532V9.63464C0.512085 4.74404 4.3344 0.823792 9.10283 0.823792Z" fill="#330000"/>
<path d="M23.938 29.8181H16.4069L14.8931 34.6699C14.8552 34.8639 14.7039 34.9804 14.5146 34.9416H10.7302C10.5031 34.9416 10.4652 34.8251 10.5031 34.5534L17.0124 15.3792C17.0881 15.1851 17.1259 14.9522 17.2016 14.6805C17.2773 14.2535 17.3151 13.7878 17.3151 13.322C17.2773 13.2056 17.3908 13.1279 17.4665 13.0891H22.6891C22.8405 13.0891 22.9162 13.1667 22.954 13.2444L30.3337 34.5534C30.4094 34.7863 30.3337 34.9028 30.1445 34.9028H25.9059C25.7545 34.9416 25.641 34.8251 25.5653 34.6699L23.938 29.8181ZM17.58 25.5873H22.6891C22.5756 25.1604 22.4242 24.617 22.2349 24.1124C22.0457 23.569 21.8565 22.948 21.7051 22.3269C21.5159 21.6671 21.3267 21.046 21.1375 20.425C20.9482 19.7652 20.759 19.183 20.6076 18.6007C20.4562 18.0185 20.3049 17.4751 20.1535 16.9705H20.1156C19.9264 17.8633 19.6994 18.756 19.4344 19.6487C19.1317 20.6579 18.8289 21.6671 18.4883 22.7151C18.1856 23.7631 17.8828 24.7334 17.58 25.5873ZM34.8372 16.7765C34.156 16.8153 33.5127 16.5436 33.0585 16.039C32.6044 15.5344 32.3395 14.8358 32.3773 14.1371C32.3395 13.4384 32.6044 12.7786 33.0964 12.3128C33.5884 11.8471 34.2317 11.5754 34.8751 11.5754C35.6698 11.5754 36.2753 11.8082 36.7295 12.3128C37.1836 12.8174 37.4107 13.4773 37.4107 14.1371C37.4485 14.8358 37.1836 15.5344 36.6916 16.039C36.1996 16.5436 35.5184 16.8153 34.8372 16.7765ZM32.5666 34.7475V18.7948C32.5666 18.6007 32.6422 18.5231 32.8315 18.5231H36.843C37.0322 18.5231 37.1079 18.6396 37.1079 18.7948V34.7475C37.1079 34.9804 37.0322 35.0968 36.843 35.0968H32.8693C32.6801 35.058 32.5666 34.9416 32.5666 34.7475Z" fill="#FF9A00"/>
</svg>
