<svg width="50" height="50" viewBox="0 0 50 50" fill="none" xmlns="http://www.w3.org/2000/svg">
<path d="M41.1026 0.823792H8.72011C4.27517 0.823792 0.671829 4.51952 0.671829 9.07844V41.0482C0.671829 45.6071 4.27517 49.3029 8.72011 49.3029H41.1026C45.5476 49.3029 49.1509 45.6071 49.1509 41.0482V9.07844C49.1509 4.51952 45.5476 0.823792 41.1026 0.823792Z" fill="#49021F"/>
<path d="M18.2775 13.5062V34.7535C18.2775 34.976 18.1799 35.0872 17.9847 35.0872H14.0496C13.8759 35.0872 13.7892 34.976 13.7896 34.7535V13.5062C13.7896 13.3285 13.8871 13.2395 14.0822 13.2394H18.0173C18.0504 13.2346 18.0841 13.2372 18.1161 13.2471C18.1481 13.257 18.1776 13.274 18.2026 13.2968C18.2275 13.3196 18.2473 13.3477 18.2606 13.3791C18.2739 13.4105 18.2804 13.4446 18.2796 13.4789L18.2775 13.5062ZM30.1295 35.4185L29.9201 35.4207C28.4232 35.4441 26.9401 35.1251 25.5785 34.4868C24.3101 33.8847 23.2498 32.9018 22.5378 31.6682C21.8184 30.4428 21.45 28.9155 21.4326 27.0864L21.432 26.9485C21.4198 25.4176 21.8013 23.9105 22.538 22.579C23.2764 21.2591 24.3533 20.172 25.6518 19.4358L25.7575 19.3768C27.1664 18.5763 28.8683 18.176 30.8633 18.176L30.9053 18.1762L30.9987 18.1784L31.1044 18.1826L31.2224 18.1889L31.3525 18.1972L31.4947 18.2079L31.816 18.2349L31.9039 18.2427V11.672C31.9039 11.5164 31.9689 11.4386 32.099 11.4383H36.1968C36.2233 11.4344 36.2503 11.4369 36.2757 11.4456C36.3011 11.4542 36.3242 11.4689 36.3431 11.4883C36.362 11.5077 36.3763 11.5314 36.3847 11.5574C36.3932 11.5835 36.3956 11.6112 36.3918 11.6384V31.3514C36.3931 31.7633 36.4094 32.1749 36.4407 32.5856L36.4714 33.0156L36.4984 33.4159L36.5219 33.7863C36.5259 33.8556 36.5095 33.9245 36.4747 33.984C36.4399 34.0436 36.3884 34.0909 36.3269 34.1199C35.2697 34.5721 34.1686 34.9074 33.0422 35.1204C32.0811 35.3025 31.1067 35.4022 30.1295 35.4185ZM31.9041 31.2846V22.1787C31.7283 22.1298 31.5489 22.0964 31.3676 22.0786C31.1461 22.0557 30.9235 22.0445 30.7008 22.0452C29.9115 22.0373 29.1317 22.22 28.4244 22.579C27.7355 22.9305 27.1473 23.4591 26.717 24.1134C26.2724 24.7803 26.0501 25.6587 26.0502 26.7484C26.0345 27.4755 26.1503 28.1992 26.3917 28.883C26.5883 29.434 26.899 29.9348 27.3024 30.3508C27.6885 30.7335 28.1562 31.0189 28.6683 31.1846C29.2092 31.3642 29.7746 31.4543 30.3431 31.4517C30.6465 31.4517 30.9283 31.4405 31.1886 31.4181C31.3963 31.402 31.6022 31.3669 31.8037 31.3132L31.9041 31.2846Z" fill="#FF3366"/>
</svg>
