<svg width="49" height="49" viewBox="0 0 49 49" fill="none" xmlns="http://www.w3.org/2000/svg">
<path d="M37.4676 0.311707H11.7131C5.43784 0.311707 0.350769 5.39877 0.350769 11.674V37.4285C0.350769 43.7037 5.43784 48.7908 11.7131 48.7908H37.4676C43.7428 48.7908 48.8298 43.7037 48.8298 37.4285V11.674C48.8298 5.39877 43.7428 0.311707 37.4676 0.311707Z" fill="#F0DB4F"/>
<path d="M13.0977 40.8243L16.8075 38.5791C17.5233 39.8481 18.1744 40.9218 19.7361 40.9218C21.2331 40.9218 22.177 40.3363 22.177 38.0585V22.5683H26.7329V38.1229C26.7329 42.8415 23.9669 44.9893 19.9314 44.9893C16.2869 44.9893 14.1717 43.1023 13.0977 40.8243ZM29.2074 40.3361L32.9168 38.1884C33.8934 39.7831 35.1625 40.9546 37.4077 40.9546C39.2956 40.9546 40.4992 40.0108 40.4992 38.709C40.4992 37.1471 39.2626 36.5937 37.1799 35.6829L36.0412 35.1945C32.7543 33.7954 30.5739 32.038 30.5739 28.3283C30.5739 24.9112 33.1774 22.3078 37.2452 22.3078C40.1415 22.3078 42.2242 23.3167 43.721 25.9526L40.1739 28.2305C39.3927 26.8313 38.547 26.2781 37.2452 26.2781C35.9109 26.2781 35.0648 27.1242 35.0648 28.2305C35.0648 29.5972 35.9109 30.1506 37.8633 30.9969L39.0022 31.4849C42.8747 33.1447 45.0551 34.8366 45.0551 38.6439C45.0551 42.7445 41.8335 44.9897 37.5054 44.9897C33.2751 44.9897 30.5415 42.9722 29.2074 40.3361Z" fill="#323330"/>
</svg>
