<svg width="105" height="40" viewBox="0 0 105 40" fill="none" xmlns="http://www.w3.org/2000/svg">
<path d="M74.976 15.936C74.976 15.424 76.352 14.96 79.104 14.544C81.856 14.128 84.8 13.84 87.936 13.68C90.56 11.312 92.928 9.296 95.04 7.632L96.096 6.768C96.576 6.768 96.816 7.12 96.816 7.824L96.912 10.176C96.816 10.528 96.144 11.632 94.896 13.488H97.248C100.8 13.488 102.848 13.84 103.392 14.544C103.968 15.216 104.256 15.76 104.256 16.176C104.256 16.72 103.712 17.008 102.624 17.04C101.536 17.072 98.128 17.088 92.4 17.088C87.824 21.792 84.24 25.968 81.648 29.616C80.656 30.96 79.792 32.16 79.056 33.216C78.32 34.272 77.744 35.008 77.328 35.424C76.944 35.872 76.576 36.096 76.224 36.096C75.168 36.096 74.272 35.744 73.536 35.04C72.8 34.336 72.432 33.472 72.432 32.448C72.432 29.632 76.352 24.528 84.192 17.136H76.8C75.584 17.136 74.976 16.736 74.976 15.936Z" fill="#1C1C1C"/>
<path d="M68.2597 17.376C68.4837 17.376 68.6917 17.488 68.8837 17.712C69.0757 17.904 69.1717 18.144 69.1717 18.432C69.1717 18.688 69.0118 19.024 68.6918 19.44C67.4438 20.976 66.6118 21.952 66.1958 22.368C65.8118 22.752 65.6197 23.008 65.6197 23.136C65.6197 23.264 65.7157 23.328 65.9077 23.328C66.1317 23.328 66.9958 23.056 68.4998 22.512C70.0038 21.936 70.9957 21.648 71.4757 21.648C71.9557 21.648 72.4517 21.856 72.9637 22.272C73.4757 22.656 73.7317 23.168 73.7317 23.808C73.7317 24.416 72.7558 25.84 70.8038 28.08C68.8518 30.288 67.8758 31.728 67.8758 32.4C67.8758 32.528 67.9237 32.592 68.0197 32.592C68.1797 32.592 68.4677 32.496 68.8837 32.304C69.2997 32.08 69.5558 31.968 69.6518 31.968C70.0038 31.968 70.1798 32.096 70.1798 32.352C70.1798 33.344 69.3957 34.336 67.8277 35.328C66.2597 36.32 64.9317 36.816 63.8437 36.816C62.7877 36.816 61.9238 36.512 61.2518 35.904C60.5798 35.328 60.2437 34.544 60.2437 33.552C60.2437 32.56 60.7238 31.456 61.6838 30.24C62.6758 28.992 63.6838 28.112 64.7078 27.6C65.7638 27.088 66.2918 26.672 66.2918 26.352C66.2918 26.256 66.2757 26.192 66.2437 26.16C64.8357 26.736 63.6838 27.024 62.7878 27.024C61.0278 27.024 60.1478 26.512 60.1478 25.488C60.1478 24.304 61.1718 22.752 63.2198 20.832C65.2678 18.912 66.9477 17.76 68.2597 17.376Z" fill="#1C1C1C"/>
<path d="M60.1418 28.032C60.5898 28.032 60.8138 28.272 60.8138 28.752C60.8138 29.232 60.1098 30.08 58.7018 31.296C57.2938 32.48 55.6138 33.584 53.6618 34.608C51.7418 35.632 50.1578 36.144 48.9098 36.144C47.3418 36.144 46.5578 35.296 46.5578 33.6C46.5578 33.184 46.7178 32.736 47.0378 32.256C47.3577 31.744 47.5177 31.456 47.5177 31.392C47.5177 31.2 47.4058 31.104 47.1818 31.104C46.9578 31.104 46.7977 31.12 46.7017 31.152C46.6377 31.184 46.0938 31.504 45.0698 32.112C42.1578 33.904 40.3018 34.8 39.5018 34.8C38.7018 34.8 37.9977 34.544 37.3897 34.032C36.8137 33.488 36.5257 32.88 36.5257 32.208C36.5257 30.864 37.0057 29.488 37.9657 28.08C38.9257 26.672 40.0297 25.488 41.2777 24.528C42.5257 23.568 43.6777 22.784 44.7337 22.176C45.8217 21.568 46.5577 21.264 46.9417 21.264C47.3257 21.264 47.8057 21.536 48.3817 22.08C48.9577 22.624 49.2458 23.152 49.2458 23.664C49.2458 24.144 49.0698 24.528 48.7178 24.816C46.3498 26.896 45.1657 28.336 45.1657 29.136C45.1657 29.552 45.3577 29.76 45.7417 29.76C46.6697 29.76 47.9978 29.008 49.7257 27.504C51.4537 25.968 52.8617 24.576 53.9497 23.328C54.8137 22.432 55.5657 21.984 56.2057 21.984C56.8457 21.984 57.4698 22.224 58.0778 22.704C58.7178 23.152 59.0378 23.568 59.0378 23.952C59.0378 24.304 58.9577 24.624 58.7977 24.912C58.6377 25.168 57.9978 26.016 56.8778 27.456C55.7577 28.864 55.0378 29.76 54.7178 30.144C54.4298 30.528 54.2858 30.848 54.2858 31.104C54.2858 31.36 54.3497 31.488 54.4777 31.488C54.6057 31.488 54.7178 31.488 54.8138 31.488C54.9418 31.456 55.3418 31.2 56.0138 30.72C56.7178 30.24 57.4538 29.712 58.2218 29.136C59.2138 28.4 59.8538 28.032 60.1418 28.032Z" fill="#1C1C1C"/>
<path d="M4.992 35.424C3.936 35.424 2.832 34.656 1.68 33.12C0.56 31.584 0 30.24 0 29.088C0 27.936 1.184 25.792 3.552 22.656C5.92 19.488 8.688 16.288 11.856 13.056C15.024 9.824 18.368 6.976 21.888 4.512C25.44 2.016 28.24 0.767999 30.288 0.767999C31.504 0.767999 32.224 1.664 32.448 3.456V3.552C32.448 4.544 31.456 6.448 29.472 9.264C27.488 12.08 25.936 14.128 24.816 15.408C24.528 15.792 24.384 16.048 24.384 16.176C24.384 16.272 24.448 16.32 24.576 16.32C24.736 16.32 25.088 16.24 25.632 16.08C28 15.312 30.832 14.016 34.128 12.192C37.424 10.368 40.08 8.784 42.096 7.44C44.144 6.096 45.296 5.312 45.552 5.088C45.84 4.864 45.984 4.72 45.984 4.656C45.984 4.56 45.92 4.512 45.792 4.512C45.696 4.512 44.88 4.864 43.344 5.568C41.84 6.272 40.928 6.624 40.608 6.624C40.288 6.624 39.824 6.464 39.216 6.144C38.64 5.792 38.352 5.36 38.352 4.848C38.352 3.984 39.904 2.96 43.008 1.776C46.144 0.592 48.224 0 49.248 0C51.52 0 52.656 0.575999 52.656 1.728C52.656 3.136 51.456 4.832 49.056 6.816C46.656 8.768 43.824 10.592 40.56 12.288C34.608 15.392 30.528 17.392 28.32 18.288C28.096 18.416 27.984 18.576 27.984 18.768C32.432 28.912 34.656 34.704 34.656 36.144C34.656 37.04 34.224 37.744 33.36 38.256C32.528 38.768 31.328 39.024 29.76 39.024C28.192 39.024 26.704 38.528 25.296 37.536C23.888 36.544 22.784 35.344 21.984 33.936C21.216 32.528 20.56 31.12 20.016 29.712C19.504 28.304 19.072 27.104 18.72 26.112C18.4 25.12 18.144 24.624 17.952 24.624C17.792 24.624 17.616 24.72 17.424 24.912C17.232 25.072 16.736 25.568 15.936 26.4C15.168 27.2 14.304 28.08 13.344 29.04C12.416 29.968 11.408 30.928 10.32 31.92C7.856 34.256 6.08 35.424 4.992 35.424Z" fill="#1C1C1C"/>
</svg>
