<svg width="49" height="50" viewBox="0 0 49 50" fill="none" xmlns="http://www.w3.org/2000/svg">
<path d="M40.7831 0.823792H8.40064C3.9557 0.823792 0.352356 4.51952 0.352356 9.07844V41.0482C0.352356 45.6071 3.9557 49.3029 8.40064 49.3029H40.7831C45.2281 49.3029 48.8314 45.6071 48.8314 41.0482V9.07844C48.8314 4.51952 45.2281 0.823792 40.7831 0.823792Z" fill="#001E36"/>
<path d="M25.812 35.0872H12.9986C12.7816 35.0872 12.6732 34.9648 12.6734 34.7201V13.5398C12.6677 13.4991 12.6714 13.4575 12.6841 13.4184C12.6967 13.3793 12.7181 13.3438 12.7465 13.3147C12.7749 13.2855 12.8095 13.2636 12.8476 13.2505C12.8857 13.2375 12.9262 13.2337 12.966 13.2396H16.9337C16.9646 13.2351 16.9962 13.2381 17.0258 13.2482C17.0554 13.2584 17.0823 13.2755 17.1044 13.2981C17.1265 13.3208 17.1431 13.3484 17.153 13.3788C17.1629 13.4092 17.1657 13.4415 17.1613 13.4732V30.8847H26.4949C26.6899 30.8847 26.7659 30.9847 26.7227 31.1848L26.1372 34.7871C26.1358 34.8363 26.1233 34.8845 26.1008 34.9279C26.0782 34.9713 26.0461 35.0087 26.0071 35.0373C25.9468 35.0694 25.88 35.0863 25.812 35.0872ZM29.0313 18.5097H32.5762C32.7739 18.5117 32.9466 18.6476 32.9988 18.8434C33.0763 18.9895 33.1312 19.147 33.1617 19.3103C33.2069 19.5251 33.2394 19.742 33.259 19.9608C33.2805 20.1943 33.2914 20.4444 33.2916 20.7113C33.8995 19.9852 34.6326 19.3803 35.4542 18.9267C36.3772 18.4149 37.4135 18.1563 38.4626 18.1762C38.5024 18.1704 38.5429 18.1742 38.581 18.1872C38.6191 18.2003 38.6537 18.2222 38.6821 18.2513C38.7105 18.2805 38.7318 18.316 38.7445 18.3551C38.7572 18.3942 38.7609 18.4357 38.7552 18.4765V22.5125C38.7552 22.6683 38.6468 22.7461 38.43 22.746C37.12 22.6629 35.8096 22.903 34.6087 23.4464C34.2007 23.6277 33.8307 23.8882 33.5192 24.2136V34.7873C33.5192 34.9874 33.4325 35.0874 33.259 35.0874H29.3239C29.2797 35.0939 29.2347 35.0897 29.1924 35.0753C29.15 35.0608 29.1115 35.0364 29.08 35.0041C29.0484 34.9717 29.0247 34.9323 29.0106 34.8888C28.9965 34.8454 28.9924 34.7992 28.9988 34.7539V23.2795C28.9988 23.0002 28.997 22.7117 28.9935 22.4139L28.9868 21.9606C28.9856 21.8838 28.9841 21.8065 28.9825 21.7286C28.9742 21.3231 28.963 20.9176 28.9488 20.5122L28.9336 20.1109C28.9192 19.6527 28.8758 19.1959 28.8037 18.7434C28.7961 18.7131 28.7958 18.6815 28.8028 18.6511C28.8098 18.6207 28.824 18.5925 28.8441 18.569C28.8641 18.5455 28.8895 18.5274 28.9179 18.5163C28.9464 18.5051 28.977 18.5013 29.0073 18.5051L29.0313 18.5097Z" fill="#31A8FF"/>
</svg>
