<svg width="49" height="38" viewBox="0 0 49 38" fill="none" xmlns="http://www.w3.org/2000/svg">
<path d="M24.0627 37.9092C23.9031 37.9092 23.7435 37.8515 23.5991 37.7552L22.1398 36.6576C21.9194 36.5036 22.0258 36.4458 22.1018 36.4169C22.3906 36.2917 22.4514 36.2629 22.763 36.0318C22.7934 36.0125 22.839 36.0222 22.8694 36.0414L23.9943 36.8887C24.0323 36.9176 24.0931 36.9176 24.1311 36.8887L28.5241 33.6729C28.5621 33.6441 28.5926 33.5863 28.5926 33.5189V27.0971C28.5926 27.0297 28.5697 26.9719 28.5241 26.943L24.1311 23.7369C24.0931 23.708 24.0399 23.708 23.9943 23.7369L19.6012 26.943C19.5556 26.9719 19.5328 27.0393 19.5328 27.0971V33.5189C19.5328 33.5767 19.5632 33.6344 19.6012 33.6633L20.8021 34.5395C21.4558 34.9535 21.8586 34.4624 21.8586 33.981V27.6362C21.8586 27.5496 21.9118 27.4726 21.9878 27.4726H22.5426C22.611 27.4726 22.6718 27.54 22.6718 27.6362V33.981C22.6718 35.0883 22.2006 35.7141 21.3721 35.7141C21.1213 35.7141 20.9161 35.7141 20.3613 35.3675L19.206 34.5298C18.9248 34.318 18.7424 33.9329 18.7424 33.5189V27.0971C18.7424 26.6831 18.9172 26.2883 19.206 26.0861L23.5991 22.8704C23.8803 22.6682 24.2451 22.6682 24.5187 22.8704L28.9118 26.0861C29.193 26.298 29.3754 26.6831 29.3754 27.0971V33.5189C29.3754 33.9329 29.2006 34.3276 28.9118 34.5298L24.5187 37.7456C24.3895 37.8515 24.2299 37.9092 24.0627 37.9092ZM27.6121 31.5741C27.6121 30.3706 26.9737 30.0528 25.6208 29.8218C24.2527 29.5907 24.1159 29.4752 24.1159 29.0708C24.1159 28.7338 24.2299 28.2909 25.2408 28.2909C26.1452 28.2909 26.4796 28.5413 26.6164 29.3115C26.6316 29.3885 26.6772 29.4367 26.738 29.4367H27.3081C27.3461 29.4367 27.3765 29.4174 27.3993 29.3885C27.4221 29.35 27.4373 29.3115 27.4297 29.2634C27.3385 27.9347 26.6468 27.3185 25.2408 27.3185C23.9867 27.3185 23.2419 27.9925 23.2419 29.1093C23.2419 30.3321 23.9867 30.6594 25.1876 30.8135C26.624 30.9964 26.738 31.2563 26.738 31.6126C26.738 32.2384 26.3428 32.4983 25.4156 32.4983C24.2527 32.4983 23.9943 32.1325 23.9107 31.4008C23.9031 31.3237 23.8499 31.266 23.7815 31.266H23.2114C23.143 31.266 23.0822 31.3334 23.0822 31.4296C23.0822 32.3636 23.4851 33.4804 25.408 33.4804C26.8141 33.4804 27.6121 32.7872 27.6121 31.5741ZM31.7543 26.7505C31.7543 27.3378 31.3743 27.8192 30.9107 27.8192C30.4471 27.8192 30.067 27.3378 30.067 26.7505C30.067 26.1439 30.4623 25.6818 30.9107 25.6818C31.3667 25.6721 31.7543 26.1439 31.7543 26.7505ZM31.6175 26.7505C31.6175 26.2498 31.2983 25.8551 30.9031 25.8551C30.5155 25.8551 30.1962 26.2498 30.1962 26.7505C30.1962 27.2511 30.5155 27.6555 30.9031 27.6555C31.2983 27.6459 31.6175 27.2415 31.6175 26.7505ZM31.2755 27.3474H31.0779C31.0703 27.2896 31.0399 26.9815 31.0399 26.9719C31.0247 26.9045 31.0095 26.866 30.9411 26.866H30.7739V27.3474H30.5915V26.1439H30.9183C31.0323 26.1439 31.2527 26.1439 31.2527 26.4616C31.2527 26.6831 31.1387 26.7312 31.0703 26.7601C31.1995 26.7697 31.2071 26.8756 31.2299 27.0297C31.2375 27.126 31.2527 27.2896 31.2755 27.3474ZM31.0627 26.5001C31.0627 26.3365 30.9715 26.3365 30.9259 26.3365H30.7739V26.6734H30.9183C31.0399 26.6734 31.0627 26.5675 31.0627 26.5001ZM10.4579 12.7804C10.4579 12.5204 10.3515 12.2893 10.1767 12.1642L5.51766 8.76552C5.44166 8.70775 5.35045 8.67887 5.25925 8.66924H5.21364C5.12244 8.66924 5.03883 8.70775 4.95523 8.76552L0.303768 12.1642C0.128958 12.2893 0.0225525 12.53 0.0225525 12.7804L0.0301529 21.9269C0.0301529 22.052 0.0833559 22.1676 0.166961 22.235C0.250565 22.3024 0.356971 22.3024 0.448176 22.235L3.21473 20.2227C3.38954 20.088 3.49595 19.8569 3.49595 19.6066V15.3318C3.49595 15.0814 3.60235 14.8407 3.77716 14.7156L4.95523 13.8587C5.04643 13.7913 5.13764 13.7624 5.23644 13.7624C5.33525 13.7624 5.43406 13.7913 5.51766 13.8587L6.69573 14.7156C6.87054 14.8407 6.97694 15.0814 6.97694 15.3318V19.6066C6.97694 19.8569 7.08335 20.0976 7.25816 20.2227L10.0247 22.235C10.1083 22.3024 10.2223 22.3024 10.3059 22.235C10.3895 22.1772 10.4427 22.052 10.4427 21.9269L10.4579 12.7804ZM35.9346 2.79621V19.7799C35.9346 20.0302 35.8282 20.2709 35.6533 20.396L30.9943 23.8043C30.8195 23.9295 30.6067 23.9295 30.4319 23.8043L25.7728 20.396C25.598 20.2709 25.4916 20.0302 25.4916 19.7799V12.9633C25.4916 12.713 25.598 12.4723 25.7728 12.3471L30.4319 8.93882C30.6067 8.81366 30.8195 8.81366 30.9943 8.93882L32.1571 9.78608C32.2864 9.88236 32.4536 9.7572 32.4536 9.57427V0.524024C32.4536 0.254443 32.6816 0.0811399 32.8716 0.215931L35.6457 2.18003C35.8206 2.29556 35.9346 2.53626 35.9346 2.79621ZM32.4384 15.2066C32.4384 15.1392 32.408 15.0814 32.37 15.0526L30.7739 13.8779C30.7283 13.8491 30.6751 13.8491 30.6295 13.8779L29.0334 15.0526C28.9878 15.0814 28.965 15.1392 28.965 15.2066V17.5462C28.965 17.6136 28.9954 17.6713 29.0334 17.7002L30.6295 18.8652C30.6751 18.8941 30.7283 18.8941 30.7663 18.8652L32.3624 17.7002C32.408 17.6713 32.4308 17.6136 32.4308 17.5462V15.2066H32.4384ZM48.3841 15.1392C48.5589 15.014 48.6653 14.7733 48.6653 14.523V12.8766C48.6653 12.6263 48.5589 12.3856 48.3841 12.2605L43.7554 8.85217C43.5806 8.72701 43.3678 8.72701 43.193 8.85217L38.5339 12.2605C38.3591 12.3856 38.2527 12.6263 38.2527 12.8766V19.6932C38.2527 19.9532 38.3591 20.1842 38.5339 20.3094L43.1626 23.6503C43.3298 23.7754 43.5426 23.7754 43.7174 23.6503L46.5144 21.6766C46.7044 21.5418 46.7044 21.1952 46.5144 21.0604L41.8249 17.6521C41.7337 17.5847 41.6805 17.4692 41.6805 17.344V15.2066C41.6805 15.0814 41.7337 14.9659 41.8249 14.8985L43.2842 13.8298C43.3678 13.7624 43.4818 13.7624 43.5654 13.8298L45.0247 14.8985C45.1083 14.9659 45.1691 15.0814 45.1691 15.2066V16.8819C45.1691 17.1514 45.4047 17.3247 45.5947 17.19L48.3841 15.1392ZM42.5089 15.4762C42.4785 15.5051 42.4557 15.5436 42.4557 15.5917V16.9011C42.4557 16.9493 42.4785 16.9974 42.5089 17.0166L43.4058 17.6713C43.4362 17.7002 43.4818 17.7002 43.5122 17.6713L44.409 17.0166C44.4394 16.9878 44.4622 16.9493 44.4622 16.9011V15.5917C44.4622 15.5436 44.4394 15.4954 44.409 15.4762L43.5122 14.8215C43.4818 14.7926 43.4362 14.7926 43.4058 14.8215L42.5089 15.4762ZM23.1886 19.6643V12.8863C23.1886 12.6359 23.067 12.3952 22.8922 12.2701L18.2484 8.88106C18.0888 8.76552 17.8683 8.74627 17.6859 8.88106L13.0421 12.2701C12.8673 12.3952 12.7457 12.6263 12.7457 12.8863V19.6643C12.7457 19.9339 12.8901 20.165 13.0497 20.2805L17.7011 23.6695C17.8836 23.8043 18.0964 23.7947 18.2636 23.6695L22.8998 20.2805C23.0366 20.1842 23.1354 20.0206 23.1734 19.828C23.181 19.7799 23.1886 19.7221 23.1886 19.6643ZM17.5415 7.63906L17.4807 7.6872H17.5643L17.5415 7.63906ZM23.3331 20.1746L23.3027 20.1072V20.1939L23.3331 20.1746Z" fill="black"/>
</svg>
