<svg width="49" height="49" viewBox="0 0 49 49" fill="none" xmlns="http://www.w3.org/2000/svg">
<path d="M8.776 0.311707H40.0852C44.8323 0.311707 48.6701 4.24791 48.6701 9.1168V39.9857C48.6701 44.8546 44.8323 48.7908 40.0852 48.7908H8.776C4.02884 48.7908 0.19104 44.8546 0.19104 39.9857V9.1168C0.19104 4.24791 4.02884 0.311707 8.776 0.311707Z" fill="#001E36"/>
<path d="M17.5628 12.6385C16.9568 12.6385 16.3509 12.6385 15.7248 12.6595C15.0984 12.6801 14.5124 12.6801 13.9671 12.7011C13.4217 12.7217 12.9168 12.7217 12.432 12.7422C11.9673 12.7628 11.6442 12.7628 11.3007 12.7628C11.1594 12.7628 11.0988 12.8456 11.0988 12.9909V34.3092C11.0988 34.4957 11.1795 34.5788 11.3412 34.5788H15.2601C15.4013 34.5578 15.5025 34.4335 15.482 34.2886V27.6383C15.8657 27.6383 16.1486 27.6383 16.3509 27.6589C16.5527 27.6795 16.8758 27.6795 17.3606 27.6795C19.0172 27.6795 20.5322 27.493 21.9055 26.9752C23.2186 26.478 24.3499 25.6078 25.1578 24.4475C25.9657 23.2873 26.3697 21.8164 26.3697 20.0347C26.3697 19.1024 26.2084 18.2117 25.9054 17.3415C25.5843 16.455 25.0814 15.6496 24.4306 14.9797C23.6624 14.2143 22.7378 13.6339 21.7237 13.2806C20.5924 12.8456 19.2191 12.6385 17.5628 12.6385ZM18.0135 16.7192C18.7332 16.7332 19.4338 16.8622 20.0875 17.1341C20.6735 17.3621 21.1582 17.7766 21.5018 18.315C21.8239 18.8722 21.9851 19.5118 21.9665 20.1594C21.9665 21.0707 21.7642 21.7754 21.34 22.2932C20.8954 22.811 20.3299 23.2049 19.6838 23.3913C18.9362 23.6399 18.1484 23.7638 17.3606 23.7638H16.2899C16.0475 23.7638 15.7854 23.7433 15.5025 23.7227V16.7616C15.6437 16.7406 15.9267 16.72 16.3308 16.741C16.7145 16.72 17.1788 16.72 17.7041 16.72C17.8076 16.7174 17.9108 16.7172 18.0135 16.7192ZM34.9547 17.777C33.5204 17.777 32.3285 18.0046 31.3794 18.5018C30.5109 18.9163 29.7633 19.579 29.2584 20.4076C28.8141 21.1744 28.5714 22.0236 28.5714 22.9147C28.5541 23.6476 28.7137 24.3735 29.0361 25.0279C29.4139 25.7246 29.9384 26.3262 30.5715 26.7887C31.4601 27.4121 32.4243 27.9136 33.4397 28.2804C34.4294 28.6739 35.096 28.9847 35.4194 29.2539C35.7425 29.5235 35.9042 29.7927 35.9042 30.0828C35.9042 30.4557 35.6819 30.8081 35.3588 30.953C34.9952 31.1394 34.4498 31.2431 33.6821 31.2431C32.8743 31.2431 32.066 31.1394 31.2983 30.9324C30.4168 30.7305 29.5717 30.388 28.7937 29.9174C28.7331 29.8758 28.6725 29.8552 28.6119 29.8968C28.5513 29.9379 28.5312 30.0207 28.5312 30.0828V33.6877C28.5112 33.8536 28.6119 33.9984 28.7535 34.0812C29.4086 34.3951 30.1015 34.618 30.8139 34.7443C31.7229 34.9307 32.6315 35.0135 33.5606 35.0135C35.0149 35.0135 36.2273 34.7858 37.2169 34.3508C38.1259 33.9779 38.9137 33.3357 39.4792 32.5068C40.0088 31.6918 40.2836 30.7307 40.267 29.7515C40.2869 29.0118 40.1273 28.2785 39.8026 27.6177C39.4186 26.913 38.8732 26.3331 38.2066 25.898C37.2314 25.2699 36.1873 24.7622 35.096 24.3854C34.6086 24.1785 34.1301 23.9504 33.6617 23.7017C33.3992 23.5568 33.1568 23.3703 32.975 23.1423C32.8538 22.9765 32.7731 22.7904 32.7731 22.6039C32.7731 22.4175 32.8337 22.2104 32.9345 22.0446C33.0761 21.8375 33.2981 21.6922 33.5606 21.6301C33.9446 21.5267 34.3688 21.4642 34.7725 21.4848C35.5402 21.4848 36.2875 21.5885 37.0351 21.7544C37.7222 21.8993 38.3683 22.1273 38.9743 22.459C39.055 22.5002 39.1561 22.5002 39.3379 22.459C39.3695 22.435 39.3951 22.4038 39.4126 22.3677C39.4302 22.3317 39.4392 22.2919 39.439 22.2516V18.8748C39.439 18.7916 39.4186 18.7089 39.3985 18.6262C39.358 18.5434 39.2773 18.4603 39.1966 18.4397C38.6395 18.2061 38.0557 18.046 37.4593 17.9631C36.6299 17.8392 35.7929 17.7773 34.9547 17.777Z" fill="#31A8FF"/>
</svg>
