<svg width="50" height="50" viewBox="0 0 50 50" fill="none" xmlns="http://www.w3.org/2000/svg">
<path d="M38.1488 0.799622H12.3943C6.11911 0.799622 1.03204 5.88669 1.03204 12.1619V37.9164C1.03204 44.1916 6.11911 49.2787 12.3943 49.2787H38.1488C44.4241 49.2787 49.5111 44.1916 49.5111 37.9164V12.1619C49.5111 5.88669 44.4241 0.799622 38.1488 0.799622Z" fill="#242938"/>
<path d="M25.2718 28.6279C27.2231 28.6279 28.8047 27.0461 28.8047 25.095C28.8047 23.1439 27.2231 21.5621 25.2718 21.5621C23.3205 21.5621 21.7389 23.1439 21.7389 25.095C21.7389 27.0461 23.3207 28.6279 25.2718 28.6279Z" fill="#00D8FF"/>
<path d="M38.1488 0.799622H12.3943C6.11911 0.799622 1.03204 5.88669 1.03204 12.1619V37.9164C1.03204 44.1916 6.11911 49.2787 12.3943 49.2787H38.1488C44.4241 49.2787 49.5111 44.1916 49.5111 37.9164V12.1619C49.5111 5.88669 44.4241 0.799622 38.1488 0.799622Z" stroke="#00D8FF" stroke-width="0.210059"/>
<path d="M25.2718 28.6279C27.2231 28.6279 28.8047 27.0461 28.8047 25.095C28.8047 23.1439 27.2231 21.5621 25.2718 21.5621C23.3205 21.5621 21.7389 23.1439 21.7389 25.095C21.7389 27.0461 23.3207 28.6279 25.2718 28.6279Z" stroke="#00D8FF" stroke-width="0.210059"/>
<path d="M25.272 17.9118C30.0153 17.9118 34.4218 18.5924 37.7443 19.7364C41.7475 21.1144 44.2087 23.2034 44.2087 25.095C44.2087 27.0662 41.6003 29.2854 37.3014 30.7097C34.0514 31.7865 29.7746 32.3485 25.272 32.3485C20.6555 32.3485 16.2838 31.8209 12.9971 30.6978C8.83888 29.2765 6.33444 27.0287 6.33444 25.095C6.33444 23.2187 8.68454 21.1459 12.6314 19.7699C15.9663 18.6072 20.4822 17.9118 25.272 17.9118Z" stroke="#00D8FF" stroke-width="0.210059"/>
<path d="M19.0187 21.524C21.3885 17.4151 24.1793 13.9378 26.8301 11.6313C30.0237 8.85188 33.0631 7.76338 34.7015 8.70815C36.4091 9.69288 37.0285 13.0614 36.1148 17.4969C35.4245 20.8501 33.7744 24.8356 31.5248 28.7363C29.2185 32.7354 26.5777 36.2588 23.963 38.5442C20.6545 41.4363 17.4558 42.4829 15.7809 41.5169C14.1555 40.5803 13.534 37.5085 14.3138 33.402C14.9726 29.9321 16.6268 25.6734 19.0187 21.524Z" stroke="#00D8FF" stroke-width="0.210059"/>
<path d="M19.0246 28.7467C16.6482 24.6422 15.0302 20.487 14.3549 17.0386C13.5419 12.8836 14.1167 9.70689 15.7538 8.75928C17.4598 7.77152 20.6873 8.91722 24.0736 11.9241C26.6339 14.1973 29.263 17.6167 31.5189 21.5136C33.8319 25.509 35.5654 29.5568 36.2398 32.9632C37.0931 37.2741 36.4025 40.5678 34.729 41.5364C33.1053 42.4765 30.1339 41.4813 26.9655 38.7548C24.2886 36.4512 21.4245 32.892 19.0246 28.7467Z" stroke="#00D8FF" stroke-width="0.210059"/>
</svg>
