<svg width="49" height="50" viewBox="0 0 49 50" fill="none" xmlns="http://www.w3.org/2000/svg">
<path d="M42.4873 10.2387C42.4491 9.99502 42.2064 9.86018 42.0058 9.84533C40.5267 9.74759 39.0474 9.65063 37.5682 9.55445C37.5682 9.55445 34.6252 6.98529 34.3022 6.70093C33.979 6.41672 33.3478 6.50317 33.1028 6.56659C33.0668 6.57593 32.4598 6.74064 31.4559 7.01383C30.4728 4.52628 28.7379 2.24032 25.6856 2.24032C25.6014 2.24032 25.5146 2.24332 25.4279 2.24766C24.5598 1.23819 23.4845 0.799622 22.5558 0.799622C15.4456 0.799622 12.0487 8.61557 10.9837 12.5874C8.22087 13.3402 6.25816 13.8754 6.00746 13.9446C4.4653 14.37 4.41652 14.4127 4.21403 15.6906C4.06164 16.658 0.0265198 44.0983 0.0265198 44.0983L31.469 49.2787L48.5056 46.0378C48.5056 46.0378 42.5249 10.4823 42.4873 10.2387ZM29.7181 7.48644L27.0575 8.21055C27.0585 8.04567 27.0594 7.88346 27.0594 7.70606C27.0594 6.16006 26.8154 4.91528 26.4239 3.9285C27.9966 4.10206 29.044 5.6756 29.7181 7.48644ZM24.4729 4.23507C24.9102 5.19848 25.1945 6.5811 25.1945 8.44685C25.1945 8.54231 25.1935 8.62959 25.1926 8.71787C23.4623 9.18915 21.5822 9.70081 19.6978 10.2141C20.7559 6.62349 22.7391 4.88925 24.4729 4.23507ZM22.3605 2.47663C22.6673 2.47663 22.9765 2.56824 23.2724 2.74731C20.9937 3.6902 18.5512 6.06494 17.5197 10.8072L13.1764 11.9901C14.3846 8.37292 17.2535 2.47663 22.3605 2.47663Z" fill="#95BF46"/>
<path d="M42.0058 9.84533C40.5267 9.74759 39.0474 9.65063 37.5682 9.55445C37.5682 9.55445 34.6252 6.98529 34.3022 6.70093C34.1813 6.59512 34.0183 6.54089 33.8479 6.51752L31.4705 49.2784L48.5056 46.0378C48.5056 46.0378 42.5249 10.4823 42.4873 10.2387C42.4491 9.99502 42.2064 9.86018 42.0058 9.84533Z" fill="#5E8E3E"/>
<path d="M25.6856 18.123L23.5849 23.6178C23.5849 23.6178 21.7444 22.754 19.4883 22.754C16.1808 22.754 16.0144 24.5792 16.0144 25.0392C16.0144 27.5487 23.4538 28.5103 23.4538 34.3886C23.4538 39.0134 20.118 41.9914 15.6202 41.9914C10.2229 41.9914 7.46269 39.0376 7.46269 39.0376L8.90787 34.8388C8.90787 34.8388 11.7451 36.9808 14.1392 36.9808C15.7035 36.9808 16.3399 35.8977 16.3399 35.1064C16.3399 31.8328 10.2365 31.6868 10.2365 26.3076C10.2365 21.7803 13.9319 17.3991 21.3915 17.3991C24.2657 17.3991 25.6856 18.123 25.6856 18.123Z" fill="white"/>
</svg>
