<svg width="49" height="38" viewBox="0 0 49 38" fill="none" xmlns="http://www.w3.org/2000/svg">
<path d="M24.7688 0.169189C18.3869 0.169189 14.4192 4.35204 12.8178 12.7492C15.208 8.56635 18.0045 6.99385 21.1835 8.0317C23 8.62925 24.3146 10.359 25.7488 12.2775C28.0912 15.4225 30.7443 19.0392 36.7198 19.0392C43.1016 19.0392 47.0694 14.8564 48.6708 6.4592C46.2806 10.6421 43.4841 12.2146 40.3051 11.1767C38.4885 10.5792 37.1978 8.8494 35.7398 6.93095C33.3974 3.78594 30.7443 0.169189 24.7688 0.169189ZM12.8178 19.0392C6.43593 19.0392 2.4682 23.2221 0.86676 31.6192C3.25696 27.4364 6.0535 25.8639 9.23247 26.9017C11.049 27.4993 12.3397 29.229 13.7978 31.1475C16.1402 34.2925 18.7933 37.9092 24.7688 37.9092C31.1506 37.9092 35.1184 33.7264 36.7198 25.3292C34.3296 29.5121 31.5331 31.0846 28.3541 30.0467C26.5375 29.4492 25.2468 27.7194 23.7888 25.801C21.4464 22.656 18.7933 19.0392 12.8178 19.0392Z" fill="black"/>
</svg>
